# xmcd CD database file
#
# Track frame offsets:
#	150
#	18093
#	32557
#	49224
#	68890
#	90129
#	108716
#
# Disc length: 1703 seconds
#
# Revision: 1
# Processed by: cddbd v1.5.2PL0 Copyright (c) Steve Scherf et al.
# Submitted via: CDex 1.70beta2
#
DISCID=4d06a507
DTITLE=白石涼子 - R
DYEAR=2005
DGENRE=seiyu
TTITLE0=smile(^-^)
TTITLE1=虹色号に飛び乗って
TTITLE2=大事 Da・I・Ji R.style
TTITLE3=ラヴ・ランデヴー
TTITLE4=遠い日のメッセージ
TTITLE5=僕のスピードで
TTITLE6=流れる雲を追いかけて
EXTD=YEAR: 2005
EXTT0=
EXTT1=
EXTT2=
EXTT3=
EXTT4=
EXTT5=
EXTT6=
PLAYORDER=
